<svg width="33" height="38" viewBox="0 0 33 38" fill="none" xmlns="http://www.w3.org/2000/svg">
<path d="M2.94644 2.96875H28.9965L24.0583 11.7361C23.9324 11.9594 23.8663 12.2119 23.8663 12.4688C23.8663 12.7256 23.9324 12.9781 24.0583 13.2014L28.9965 21.9688H2.94644V2.96875ZM2.94644 24.9375H31.5269C31.7846 24.9375 32.0377 24.8694 32.2611 24.7399C32.4845 24.6105 32.6703 24.4244 32.7999 24.2C32.9296 23.9756 32.9986 23.7209 33 23.4613C33.0014 23.2017 32.9352 22.9462 32.808 22.7204L27.033 12.4688L32.808 2.21706C32.9352 1.99127 33.0014 1.73582 33 1.4762C32.9986 1.21658 32.9296 0.961875 32.7999 0.737509C32.6703 0.513143 32.4845 0.326964 32.2611 0.197552C32.0377 0.0681406 31.7846 2.31183e-05 31.5269 0H1.47322C0.660003 0 0 0.665 0 1.48438V36.5156C0 36.9093 0.155214 37.2869 0.431496 37.5652C0.707779 37.8436 1.0825 38 1.47322 38C1.86394 38 2.23866 37.8436 2.51494 37.5652C2.79123 37.2869 2.94644 36.9093 2.94644 36.5156V24.9375Z" fill="white"/>
</svg>
