<svg width="62" height="62" viewBox="0 0 62 62" fill="none" xmlns="http://www.w3.org/2000/svg">
<path d="M20.08 5H41.92C50.24 5 57 11.76 57 20.08V41.92C57 45.9195 55.4112 49.7551 52.5832 52.5832C49.7551 55.4112 45.9195 57 41.92 57H20.08C11.76 57 5 50.24 5 41.92V20.08C5 16.0805 6.58878 12.2449 9.41683 9.41683C12.2449 6.58878 16.0805 5 20.08 5ZM19.56 10.2C17.0776 10.2 14.6968 11.1861 12.9415 12.9415C11.1861 14.6968 10.2 17.0776 10.2 19.56V42.44C10.2 47.614 14.386 51.8 19.56 51.8H42.44C44.9224 51.8 47.3032 50.8139 49.0585 49.0585C50.8139 47.3032 51.8 44.9224 51.8 42.44V19.56C51.8 14.386 47.614 10.2 42.44 10.2H19.56ZM44.65 14.1C45.512 14.1 46.3386 14.4424 46.9481 15.0519C47.5576 15.6614 47.9 16.488 47.9 17.35C47.9 18.212 47.5576 19.0386 46.9481 19.6481C46.3386 20.2576 45.512 20.6 44.65 20.6C43.788 20.6 42.9614 20.2576 42.3519 19.6481C41.7424 19.0386 41.4 18.212 41.4 17.35C41.4 16.488 41.7424 15.6614 42.3519 15.0519C42.9614 14.4424 43.788 14.1 44.65 14.1ZM31 18C34.4478 18 37.7544 19.3696 40.1924 21.8076C42.6304 24.2456 44 27.5522 44 31C44 34.4478 42.6304 37.7544 40.1924 40.1924C37.7544 42.6304 34.4478 44 31 44C27.5522 44 24.2456 42.6304 21.8076 40.1924C19.3696 37.7544 18 34.4478 18 31C18 27.5522 19.3696 24.2456 21.8076 21.8076C24.2456 19.3696 27.5522 18 31 18ZM31 23.2C28.9313 23.2 26.9473 24.0218 25.4846 25.4846C24.0218 26.9473 23.2 28.9313 23.2 31C23.2 33.0687 24.0218 35.0526 25.4846 36.5154C26.9473 37.9782 28.9313 38.8 31 38.8C33.0687 38.8 35.0526 37.9782 36.5154 36.5154C37.9782 35.0526 38.8 33.0687 38.8 31C38.8 28.9313 37.9782 26.9473 36.5154 25.4846C35.0526 24.0218 33.0687 23.2 31 23.2Z" fill="#F0E1E1"/>
</svg>
