<svg width="10" height="18" viewBox="0 0 10 18" fill="none" xmlns="http://www.w3.org/2000/svg">
<path d="M1.98156 17.6438L9.74653 9.66491C9.8387 9.56992 9.90413 9.46702 9.94284 9.3562C9.98155 9.24538 10.0006 9.12665 9.99999 9C9.99999 8.87335 9.98094 8.75462 9.94284 8.6438C9.90475 8.53298 9.83931 8.43008 9.74653 8.33509L1.98156 0.332454C1.76651 0.110818 1.49769 0 1.17511 0C0.852533 0 0.576036 0.118734 0.345622 0.356201C0.115207 0.593668 -2.66115e-08 0.870712 -2.66115e-08 1.18734C-2.66115e-08 1.50396 0.115207 1.781 0.345622 2.01847L7.11981 9L0.345622 15.9815C0.130568 16.2032 0.0230411 16.4764 0.0230411 16.8013C0.0230411 17.1261 0.138248 17.407 0.368663 17.6438C0.599077 17.8813 0.867894 18 1.17511 18C1.48233 18 1.75115 17.8813 1.98156 17.6438Z" fill="white"/>
</svg>
