<svg width="24" height="16" viewBox="0 0 24 16" fill="none" xmlns="http://www.w3.org/2000/svg">
<path d="M1.33334 16C0.95556 16 0.638671 15.872 0.382671 15.616C0.126671 15.36 -0.000884275 15.0436 4.61361e-06 14.6667C4.61361e-06 14.2889 0.128005 13.972 0.384005 13.716C0.640004 13.46 0.956448 13.3324 1.33334 13.3333H22.6667C23.0444 13.3333 23.3613 13.4613 23.6173 13.7173C23.8733 13.9733 24.0009 14.2898 24 14.6667C24 15.0444 23.872 15.3613 23.616 15.6173C23.36 15.8733 23.0435 16.0009 22.6667 16H1.33334ZM1.33334 9.33333C0.95556 9.33333 0.638671 9.20533 0.382671 8.94933C0.126671 8.69333 -0.000884275 8.37689 4.61361e-06 8C4.61361e-06 7.62222 0.128005 7.30533 0.384005 7.04933C0.640004 6.79333 0.956448 6.66578 1.33334 6.66667H22.6667C23.0444 6.66667 23.3613 6.79467 23.6173 7.05067C23.8733 7.30667 24.0009 7.62311 24 8C24 8.37778 23.872 8.69467 23.616 8.95067C23.36 9.20667 23.0435 9.33422 22.6667 9.33333H1.33334ZM1.33334 2.66667C0.95556 2.66667 0.638671 2.53867 0.382671 2.28267C0.126671 2.02667 -0.000884275 1.71023 4.61361e-06 1.33334C4.61361e-06 0.95556 0.128005 0.638671 0.384005 0.382671C0.640004 0.126671 0.956448 -0.000884275 1.33334 4.6136e-06H22.6667C23.0444 4.6136e-06 23.3613 0.128005 23.6173 0.384005C23.8733 0.640004 24.0009 0.956448 24 1.33334C24 1.71111 23.872 2.028 23.616 2.284C23.36 2.54 23.0435 2.66756 22.6667 2.66667H1.33334Z" fill="white"/>
</svg>
