<svg width="98" height="98" viewBox="0 0 98 98" fill="none" xmlns="http://www.w3.org/2000/svg">
<path d="M49.98 53.9L45.57 58.31C44.6717 59.2083 44.2225 60.3517 44.2225 61.74C44.2225 63.1283 44.6717 64.2717 45.57 65.17C46.4683 66.0683 47.6117 66.5175 49 66.5175C50.3883 66.5175 51.5317 66.0683 52.43 65.17L65.17 52.43C66.15 51.45 66.64 50.3067 66.64 49C66.64 47.6933 66.15 46.55 65.17 45.57L52.43 32.83C51.5317 31.9317 50.3883 31.4825 49 31.4825C47.6117 31.4825 46.4683 31.9317 45.57 32.83C44.6717 33.7283 44.2225 34.8717 44.2225 36.26C44.2225 37.6483 44.6717 38.7917 45.57 39.69L49.98 44.1H34.3C32.9117 44.1 31.7471 44.5704 30.8063 45.5112C29.8655 46.452 29.3967 47.6149 29.4 49C29.4 50.3883 29.8704 51.5529 30.8112 52.4937C31.752 53.4345 32.9149 53.9033 34.3 53.9H49.98ZM98 49C98 55.7783 96.7129 62.1483 94.1388 68.11C91.5647 74.0717 88.0742 79.2575 83.6675 83.6675C79.2575 88.0775 74.0717 91.5679 68.11 94.1388C62.1483 96.7097 55.7783 97.9967 49 98C42.2217 98 35.8517 96.7129 29.89 94.1388C23.9283 91.5647 18.7425 88.0742 14.3325 83.6675C9.9225 79.2575 6.43207 74.0717 3.8612 68.11C1.29033 62.1483 0.00326667 55.7783 0 49C0 42.2217 1.28707 35.8517 3.8612 29.89C6.43533 23.9283 9.92577 18.7425 14.3325 14.3325C18.7425 9.9225 23.9283 6.43044 29.89 3.85631C35.8517 1.28218 42.2217 -0.00325775 49 7.62939e-06C55.7783 7.62939e-06 62.1483 1.28707 68.11 3.86121C74.0717 6.43534 79.2575 9.92577 83.6675 14.3325C88.0775 18.7425 91.5696 23.9283 94.1437 29.89C96.7178 35.8517 98.0033 42.2217 98 49ZM88.2 49C88.2 38.0567 84.4025 28.7875 76.8075 21.1925C69.2125 13.5975 59.9433 9.8 49 9.8C38.0567 9.8 28.7875 13.5975 21.1925 21.1925C13.5975 28.7875 9.8 38.0567 9.8 49C9.8 59.9433 13.5975 69.2125 21.1925 76.8075C28.7875 84.4025 38.0567 88.2 49 88.2C59.9433 88.2 69.2125 84.4025 76.8075 76.8075C84.4025 69.2125 88.2 59.9433 88.2 49Z" fill="#65575E"/>
</svg>
