<svg width="98" height="98" viewBox="0 0 98 98" fill="none" xmlns="http://www.w3.org/2000/svg">
<path d="M48.02 44.1L52.43 39.69C53.3283 38.7917 53.7775 37.6483 53.7775 36.26C53.7775 34.8717 53.3283 33.7283 52.43 32.83C51.5317 31.9317 50.3883 31.4825 49 31.4825C47.6117 31.4825 46.4683 31.9317 45.57 32.83L32.83 45.57C31.85 46.55 31.36 47.6933 31.36 49C31.36 50.3067 31.85 51.45 32.83 52.43L45.57 65.17C46.4683 66.0683 47.6117 66.5175 49 66.5175C50.3883 66.5175 51.5317 66.0683 52.43 65.17C53.3283 64.2717 53.7775 63.1283 53.7775 61.74C53.7775 60.3517 53.3283 59.2083 52.43 58.31L48.02 53.9H63.7C65.0883 53.9 66.2529 53.4296 67.1937 52.4888C68.1345 51.548 68.6033 50.3851 68.6 49C68.6 47.6117 68.1296 46.4471 67.1888 45.5063C66.248 44.5655 65.0851 44.0967 63.7 44.1H48.02ZM7.62939e-06 49C7.62939e-06 42.2217 1.28707 35.8517 3.86121 29.89C6.43534 23.9283 9.92577 18.7425 14.3325 14.3325C18.7425 9.9225 23.9283 6.43207 29.89 3.8612C35.8517 1.29033 42.2217 0.00326667 49 0C55.7783 0 62.1483 1.28707 68.11 3.8612C74.0717 6.43533 79.2575 9.92577 83.6675 14.3325C88.0775 18.7425 91.5679 23.9283 94.1388 29.89C96.7097 35.8517 97.9967 42.2217 98 49C98 55.7783 96.7129 62.1483 94.1388 68.11C91.5647 74.0717 88.0742 79.2575 83.6675 83.6675C79.2575 88.0775 74.0717 91.5696 68.11 94.1437C62.1483 96.7178 55.7783 98.0033 49 98C42.2217 98 35.8517 96.7129 29.89 94.1388C23.9283 91.5647 18.7425 88.0742 14.3325 83.6675C9.9225 79.2575 6.43044 74.0717 3.85631 68.11C1.28218 62.1483 -0.00325775 55.7783 7.62939e-06 49ZM9.8 49C9.8 59.9433 13.5975 69.2125 21.1925 76.8075C28.7875 84.4025 38.0567 88.2 49 88.2C59.9433 88.2 69.2125 84.4025 76.8075 76.8075C84.4025 69.2125 88.2 59.9433 88.2 49C88.2 38.0567 84.4025 28.7875 76.8075 21.1925C69.2125 13.5975 59.9433 9.8 49 9.8C38.0567 9.8 28.7875 13.5975 21.1925 21.1925C13.5975 28.7875 9.8 38.0567 9.8 49Z" fill="#65575E"/>
</svg>
