<svg width="28" height="38" viewBox="0 0 28 38" fill="none" xmlns="http://www.w3.org/2000/svg">
<path d="M14 0C17.713 0 21.274 1.42984 23.8995 3.97498C26.525 6.52012 28 9.97206 28 13.5714C28.0007 16.7001 26.8862 19.7328 24.8453 22.1565C22.8043 24.5801 19.9622 26.2457 16.8 26.8714V38H11.2V26.8714C8.03778 26.2457 5.19569 24.5801 3.15474 22.1565C1.11379 19.7328 -0.000658422 16.7001 2.91839e-07 13.5714C2.91839e-07 9.97206 1.475 6.52012 4.10051 3.97498C6.72601 1.42984 10.287 0 14 0ZM14 5.42857C11.7722 5.42857 9.63561 6.28648 8.0603 7.81356C6.485 9.34064 5.6 11.4118 5.6 13.5714C5.6 15.731 6.485 17.8022 8.0603 19.3293C9.63561 20.8564 11.7722 21.7143 14 21.7143C16.2278 21.7143 18.3644 20.8564 19.9397 19.3293C21.515 17.8022 22.4 15.731 22.4 13.5714C22.4 11.4118 21.515 9.34064 19.9397 7.81356C18.3644 6.28648 16.2278 5.42857 14 5.42857Z" fill="white"/>
</svg>
